<svg width="38" height="37" viewBox="0 0 38 37" fill="none" xmlns="http://www.w3.org/2000/svg">
<path d="M19 2.46655V23.4332M19 23.4332V28.3665C19 31.0912 16.7316 33.2999 13.9334 33.2999C11.1351 33.2999 8.8667 31.0912 8.8667 28.3665C8.8667 25.6419 11.1351 23.4332 13.9334 23.4332M19 23.4332H13.9334M13.9334 23.4332C11.1351 23.4332 8.8667 21.2245 8.8667 18.4999C8.8667 15.7753 11.1351 13.5666 13.9334 13.5666M13.9334 13.5666H19M13.9334 13.5666H24.0667M13.9334 13.5666C11.1351 13.5666 8.8667 11.3578 8.8667 8.63322C8.8667 5.90861 11.1351 3.69989 13.9334 3.69989H24.0667C26.8649 3.69989 29.1334 5.90861 29.1334 8.63322C29.1334 11.3578 26.8649 13.5666 24.0667 13.5666M24.0667 13.5666C26.8649 13.5666 29.1334 15.7753 29.1334 18.4999C29.1334 21.2245 26.8649 23.4332 24.0667 23.4332C21.2685 23.4332 19 21.2245 19 18.4999C19 15.7753 21.2685 13.5666 24.0667 13.5666Z" stroke="#040127"/>
</svg>
