<svg width="38" height="37" viewBox="0 0 38 37" fill="none" xmlns="http://www.w3.org/2000/svg">
<path fill-rule="evenodd" clip-rule="evenodd" d="M26.6638 20.3382L27.8769 9.47337C27.8769 9.47337 26.7278 10.4222 19.4136 10.4222C12.0988 10.4222 11.0682 9.49306 11.0682 9.49306L12.0293 18.7293C12.544 17.269 13.7708 14.2983 15.7068 14.398C16.5865 14.4427 17.7595 16.131 16.7541 16.1883C16.3292 16.2121 16.2873 15.3456 15.7846 15.2185C15.4213 15.1266 14.9151 15.4214 14.5877 15.7407C13.9354 16.3775 12.532 18.8893 12.7175 20.1419C12.9545 21.7383 14.9276 19.5869 15.261 18.9484C15.4967 18.4984 15.6559 17.1652 16.1706 17.3048C16.6841 17.4445 16.1251 18.8206 15.7517 20.0369C15.3328 21.4035 15.1131 22.8465 14.5883 22.6806C14.0635 22.5135 14.9174 20.7518 14.8875 20.4427C14.3938 20.8962 13.483 22.048 12.3184 21.4751L12.9348 27.4035C12.9348 27.4035 14.5404 28.6686 19.3771 28.6686C24.2126 28.6686 25.8792 27.4237 25.8792 27.4237L26.5633 21.2979C25.893 21.9006 24.0618 22.8614 23.9409 21.7037C23.8415 20.7458 26.045 19.3571 25.4789 19.3106C24.2622 19.3822 23.656 20.7351 23.0432 22.1512C22.8194 22.6704 22.0516 24.8869 21.5471 24.6141C21.0444 24.3408 22.2006 22.5195 22.5243 21.4393C22.1503 21.7114 20.7787 22.7737 20.4256 21.7794C19.857 22.2599 18.6422 22.5206 18.7798 21.2567C18.4782 21.7914 17.7984 22.5368 16.9845 22.227C15.9157 21.82 17.6051 18.4226 18.0258 18.5939C18.4447 18.7651 17.9402 19.5392 17.808 19.8399C17.5171 20.5012 17.1814 21.3331 17.407 21.5031C17.79 21.7944 18.8373 20.3991 18.8594 20.3693C19.0551 20.1115 19.6135 18.4238 20.0623 18.6183C20.5112 18.8117 18.9414 21.0389 19.5285 21.4811C19.6482 21.5706 20.1317 21.4262 20.4262 21.1081C20.6177 20.9028 20.5518 20.4475 21.1862 18.9358C21.823 17.4242 22.3891 15.542 22.826 15.6852C23.261 15.8284 22.902 16.7952 22.7458 17.155C22.0133 18.8463 20.7439 21.6392 21.3424 21.428C21.9408 21.2161 22.252 21.2042 22.8385 20.5209C23.425 19.8364 23.3975 18.7096 23.7883 18.7341C24.1796 18.758 24.1138 19.1184 24.0193 19.3935C24.4035 18.9555 25.8415 18.0311 26.1886 18.946C26.6016 20.0297 24.1324 21.5945 24.7482 21.5151C25.3197 21.4399 26.2311 20.8789 26.6752 20.343L26.6638 20.3382ZM21.6548 7.72124C20.9714 7.69618 20.2544 7.68305 19.5159 7.68305C14.8121 7.68305 11 8.21776 11 8.8766C11 9.53544 14.8121 10.0701 19.5147 10.0701C24.2173 10.0701 28.0295 9.53544 28.0295 8.8766C28.0295 8.39918 26.0289 7.9874 23.1389 7.79643L23.7284 5.47319L27.9457 1.04811L27.9259 1.0314C27.9379 1.02365 27.9511 1.0135 27.9618 1.00157C28.0696 0.879227 27.908 0.567114 27.6028 0.303339C27.2976 0.0407589 26.9642 -0.0726282 26.8583 0.0485169C26.8439 0.0646298 26.8344 0.0843234 26.8296 0.10521L22.3669 4.81853L21.6524 7.72124H21.6548ZM24.1396 35.8019C24.1396 36.4297 22.0629 36.9387 19.5016 36.9387C16.9402 36.9387 14.8636 36.4297 14.8636 35.8019L14.4662 29.9451L13.3423 28.0844C13.3423 28.0844 15.5877 28.9974 19.4046 28.9974C23.2227 28.9974 25.5028 28.0665 25.5028 28.0665L24.501 29.7732L24.1384 35.8019H24.1396ZM22.732 9.20124C22.8756 9.18215 23.0971 9.15529 23.0971 8.98223C23.0971 8.88077 23.0109 8.8211 22.9127 8.79126L22.8397 8.90465C22.8996 8.91956 22.9355 8.93806 22.9355 8.95716C22.9343 9.02161 22.4747 9.05264 22.0952 9.05742C21.7158 9.06219 21.2191 9.01744 21.2197 8.95239C21.2197 8.93866 21.2377 8.92553 21.2706 8.91479L21.197 8.79961C21.1192 8.83423 21.0581 8.88316 21.0581 8.97029C21.0581 9.01565 21.0779 9.08189 21.115 9.11531C21.2526 9.24063 21.5967 9.24481 22.0821 9.24242C22.5668 9.24063 22.7326 9.20363 22.7326 9.20363L22.732 9.20124Z" fill="#2B2B2B"/>
</svg>
