<svg width="37" height="37" viewBox="0 0 37 37" fill="none" xmlns="http://www.w3.org/2000/svg">
<path d="M30.8333 19.7334V19.3223C30.8333 17.5059 29.3608 16.0334 27.5444 16.0334H24.6666C22.6232 16.0334 20.9666 17.6899 20.9666 19.7334C20.9666 21.7769 22.6232 23.4334 24.6666 23.4334H27.1333C29.1767 23.4334 30.8333 25.0899 30.8333 27.1334C30.8333 29.1769 29.1767 30.8334 27.1333 30.8334H24.6666C22.6232 30.8334 20.9666 29.1769 20.9666 27.1334M16.0333 14.8001V27.1334C16.0333 29.1769 14.3767 30.8334 12.3333 30.8334C10.2898 30.8334 8.63328 29.1769 8.63328 27.1334M1.23328 1.2334H35.7666V35.7667H1.23328V1.2334Z" stroke="#040127"/>
</svg>
