<svg width="61" height="37" viewBox="0 0 61 37" fill="none" xmlns="http://www.w3.org/2000/svg">
<g clip-path="url(#clip0_102_456)">
<path d="M30.156 36.9986C29.9532 36.9987 29.7539 36.9459 29.5782 36.8456L27.7387 35.7681C27.4629 35.6165 27.6008 35.5619 27.689 35.5305C27.9796 35.4407 28.2576 35.315 28.5164 35.1563C28.5383 35.1459 28.5626 35.1415 28.5868 35.1434C28.6111 35.1453 28.6343 35.1535 28.6543 35.1672L30.0663 35.9975C30.0926 36.0116 30.122 36.019 30.1518 36.019C30.1817 36.019 30.2111 36.0116 30.2373 35.9975L35.7462 32.8483C35.7718 32.833 35.7931 32.8114 35.8078 32.7855C35.8226 32.7597 35.8303 32.7305 35.8303 32.7008V26.4051C35.8304 26.3749 35.8225 26.3451 35.8075 26.3188C35.7926 26.2925 35.7709 26.2704 35.7448 26.2549L30.2387 23.1138C30.2129 23.0991 30.1837 23.0913 30.1539 23.0913C30.1241 23.0913 30.0949 23.0991 30.0691 23.1138L24.563 26.2549C24.5366 26.2703 24.5147 26.2922 24.4995 26.3186C24.4842 26.3449 24.4762 26.3747 24.4761 26.4051V32.7008C24.4761 32.7306 24.4841 32.7599 24.4994 32.7856C24.5147 32.8113 24.5366 32.8325 24.563 32.8469L26.0716 33.71C26.8906 34.1197 27.3926 33.6377 27.3926 33.1638V26.9418C27.3926 26.9211 27.3967 26.9005 27.4048 26.8814C27.4128 26.8622 27.4246 26.8449 27.4395 26.8303C27.4544 26.8157 27.472 26.8041 27.4914 26.7963C27.5108 26.7885 27.5316 26.7846 27.5525 26.7847H28.2503C28.2712 26.7846 28.292 26.7885 28.3114 26.7963C28.3308 26.8041 28.3484 26.8157 28.3633 26.8303C28.3782 26.8449 28.39 26.8622 28.398 26.8814C28.4061 26.9005 28.4102 26.9211 28.4102 26.9418V33.1583C28.4102 34.2413 27.8159 34.8613 26.7789 34.8613C26.4604 34.8613 26.2108 34.8613 25.5103 34.5199L24.0652 33.7005C23.8896 33.5988 23.7439 33.4535 23.6426 33.2788C23.5412 33.1042 23.4877 32.9063 23.4874 32.7049V26.4092C23.4874 26.2079 23.5408 26.0101 23.6422 25.8356C23.7436 25.6612 23.8895 25.5161 24.0652 25.415L29.5713 22.2576C29.7489 22.1614 29.9481 22.1111 30.1504 22.1111C30.3528 22.1111 30.552 22.1614 30.7296 22.2576L36.2384 25.4109C36.4141 25.5121 36.5599 25.6572 36.6613 25.8316C36.7626 26.0061 36.8161 26.2038 36.8162 26.4051V32.7008C36.8158 32.9022 36.7622 33.1 36.6609 33.2746C36.5595 33.4492 36.4139 33.5946 36.2384 33.6964L30.7296 36.8456C30.5551 36.9451 30.3573 36.9978 30.156 36.9986Z" fill="#040127"/>
<path d="M31.8506 32.6612C29.4402 32.6612 28.9356 31.5687 28.9356 30.6468C28.9354 30.6262 28.9393 30.6057 28.9473 30.5865C28.9552 30.5674 28.9668 30.55 28.9816 30.5354C28.9964 30.5208 29.0139 30.5092 29.0332 30.5014C29.0526 30.4935 29.0733 30.4896 29.0941 30.4898H29.807C29.8457 30.4895 29.8832 30.5032 29.9125 30.5283C29.9417 30.5535 29.9606 30.5883 29.9656 30.6263C30.0732 31.3447 30.3931 31.708 31.8506 31.708C33.0117 31.708 33.5054 31.4471 33.5054 30.838C33.5054 30.4857 33.3675 30.2248 31.5624 30.05C30.0553 29.9025 29.1231 29.5721 29.1231 28.3785C29.1231 27.2777 30.0594 26.6208 31.63 26.6208C33.395 26.6208 34.2679 27.2272 34.3782 28.5328C34.3801 28.5546 34.3775 28.5765 34.3703 28.5972C34.3632 28.6179 34.3518 28.6369 34.3369 28.653C34.3218 28.6688 34.3037 28.6815 34.2835 28.6902C34.2634 28.6989 34.2416 28.7034 34.2196 28.7035H33.5054C33.4693 28.7034 33.4344 28.6912 33.4064 28.6689C33.3783 28.6465 33.3587 28.6154 33.3509 28.5806C33.1785 27.8254 32.7621 27.5836 31.63 27.5836C30.3628 27.5836 30.2152 28.0207 30.2152 28.3484C30.2152 28.7445 30.389 28.8605 32.1002 29.0845C33.8115 29.3085 34.5975 29.6199 34.5975 30.7984C34.5975 31.977 33.6033 32.6612 31.8506 32.6612Z" fill="#040127"/>
<path d="M39.7947 26.0584C39.7947 26.2664 39.7324 26.4697 39.6158 26.6426C39.4991 26.8156 39.3333 26.9503 39.1393 27.0299C38.9452 27.1095 38.7318 27.1303 38.5258 27.0898C38.3198 27.0492 38.1306 26.949 37.9821 26.802C37.8336 26.6549 37.7325 26.4675 37.6915 26.2636C37.6506 26.0596 37.6716 25.8481 37.752 25.656C37.8323 25.4638 37.9684 25.2996 38.143 25.1841C38.3176 25.0685 38.5229 25.0068 38.7329 25.0068C39.0143 25.0076 39.284 25.1186 39.4829 25.3156C39.6819 25.5127 39.794 25.7797 39.7947 26.0584ZM37.8421 26.0584C37.8416 26.2331 37.8934 26.4041 37.9911 26.5496C38.0888 26.6951 38.2279 26.8086 38.3908 26.8757C38.5536 26.9428 38.733 26.9605 38.906 26.9265C39.0791 26.8926 39.2381 26.8085 39.3628 26.685C39.4876 26.5614 39.5725 26.404 39.6067 26.2326C39.641 26.0612 39.6231 25.8836 39.5554 25.7223C39.4876 25.5609 39.373 25.4232 39.2261 25.3265C39.0792 25.2297 38.9066 25.1784 38.7302 25.1789C38.4953 25.1796 38.2703 25.2721 38.104 25.4363C37.9377 25.6005 37.8436 25.8231 37.8421 26.0557V26.0584ZM38.3344 25.4712H38.7481C38.886 25.4712 39.1618 25.4712 39.1618 25.7825C39.167 25.8498 39.1469 25.9165 39.1054 25.97C39.0639 26.0234 39.004 26.0598 38.937 26.0721C39.0997 26.083 39.1108 26.1895 39.1328 26.3452C39.139 26.4513 39.1599 26.5561 39.1949 26.6566H38.9425C38.9425 26.6006 38.897 26.3001 38.897 26.2837C38.8805 26.2168 38.857 26.184 38.7729 26.184H38.5675V26.6566H38.3372L38.3344 25.4712ZM38.5592 25.9888H38.744C38.7673 25.9918 38.7911 25.9897 38.8136 25.9826C38.8361 25.9755 38.8567 25.9636 38.874 25.9476C38.8912 25.9317 38.9047 25.9122 38.9135 25.8905C38.9222 25.8688 38.926 25.8455 38.9246 25.8221C38.9246 25.661 38.8115 25.661 38.7495 25.661H38.5592V25.9888Z" fill="#040127"/>
<path fill-rule="evenodd" clip-rule="evenodd" d="M13.0902 12.3661C13.0908 12.243 13.0584 12.1219 12.9964 12.0152C12.9344 11.9084 12.845 11.8198 12.7372 11.7584L6.89744 8.43027C6.79943 8.3742 6.68922 8.34235 6.57615 8.3374H6.51547C6.40199 8.34251 6.29137 8.37434 6.1928 8.43027L0.353009 11.7584C0.245546 11.8202 0.156366 11.9088 0.0944087 12.0155C0.0324515 12.1221 -0.000106506 12.2431 2.61749e-07 12.3661L0.0124112 21.329C0.0118688 21.3903 0.02796 21.4507 0.0590063 21.5038C0.0900526 21.5569 0.134916 21.6007 0.188915 21.6308C0.241773 21.6624 0.302321 21.679 0.364039 21.679C0.425758 21.679 0.486307 21.6624 0.539165 21.6308L4.00995 19.6629C4.11693 19.6009 4.20575 19.5124 4.26766 19.4061C4.32956 19.2997 4.36241 19.1793 4.36296 19.0565V14.868C4.36288 14.7457 4.39533 14.6255 4.45706 14.5195C4.51879 14.4136 4.60761 14.3256 4.71458 14.2644L6.1928 13.4204C6.30057 13.359 6.42285 13.3269 6.54719 13.3275C6.67022 13.327 6.79115 13.3591 6.89744 13.4204L8.37566 14.2644C8.48264 14.3256 8.57146 14.4136 8.63318 14.5195C8.69491 14.6255 8.72737 14.7457 8.72729 14.868V19.0565C8.72798 19.1794 8.76103 19.3 8.82319 19.4063C8.88534 19.5126 8.97444 19.6011 9.08168 19.6629L12.5511 21.6308C12.6045 21.6623 12.6654 21.6789 12.7276 21.6789C12.7897 21.6789 12.8507 21.6623 12.9041 21.6308C12.9574 21.6 13.0015 21.556 13.0323 21.503C13.063 21.4501 13.0792 21.3901 13.0792 21.329L13.0902 12.3661Z" fill="#040127"/>
<path fill-rule="evenodd" clip-rule="evenodd" d="M41.1875 0.0437506C41.1338 0.0143358 41.0734 -0.00073263 41.0121 2.73904e-05C40.9508 0.000787411 40.8907 0.0173497 40.8378 0.0480849C40.785 0.0788202 40.7411 0.122669 40.7105 0.17531C40.6799 0.227951 40.6637 0.28757 40.6635 0.348296V9.22513C40.6632 9.26825 40.6517 9.31057 40.6299 9.34792C40.6082 9.38527 40.577 9.41637 40.5394 9.43817C40.5019 9.45963 40.4593 9.47092 40.416 9.47092C40.3726 9.47092 40.3301 9.45963 40.2926 9.43817L38.835 8.60102C38.728 8.53963 38.6064 8.50731 38.4827 8.50731C38.359 8.50731 38.2375 8.53963 38.1304 8.60102L32.2878 11.9401C32.1803 12.0011 32.091 12.0892 32.029 12.1954C31.967 12.3017 31.9345 12.4223 31.9348 12.5451V19.2259C31.9349 19.3485 31.9676 19.469 32.0295 19.5752C32.0915 19.6814 32.1806 19.7696 32.2878 19.8309L38.1304 23.1727C38.2375 23.2338 38.359 23.266 38.4827 23.266C38.6064 23.266 38.7279 23.2338 38.835 23.1727L44.679 19.8309C44.786 19.7694 44.8749 19.6811 44.9369 19.575C44.9988 19.4688 45.0316 19.3485 45.032 19.2259V2.5757C45.032 2.45115 44.9984 2.32886 44.9346 2.22152C44.8709 2.11417 44.7793 2.02569 44.6693 1.96524L41.1875 0.0437506ZM40.6456 17.0326C40.6457 17.0634 40.6377 17.0936 40.6222 17.1203C40.6067 17.1469 40.5843 17.169 40.5573 17.1842L38.551 18.33C38.524 18.3449 38.4936 18.3526 38.4627 18.3526C38.4318 18.3526 38.4015 18.3449 38.3745 18.33L36.3695 17.1842C36.3425 17.169 36.3201 17.1469 36.3046 17.1203C36.2891 17.0936 36.2811 17.0634 36.2812 17.0326V14.7383C36.2813 14.708 36.2893 14.6782 36.3046 14.6518C36.3198 14.6255 36.3417 14.6035 36.3681 14.5881L38.3745 13.4396C38.4012 13.4241 38.4317 13.4159 38.4627 13.4159C38.4937 13.4159 38.5242 13.4241 38.551 13.4396L40.5573 14.5881C40.5841 14.6032 40.6063 14.6251 40.6218 14.6515C40.6373 14.6778 40.6455 14.7078 40.6456 14.7383V17.0326Z" fill="#040127"/>
<path fill-rule="evenodd" clip-rule="evenodd" d="M60.6484 14.6782C60.7554 14.617 60.8442 14.529 60.9059 14.4231C60.9676 14.3171 61.0001 14.1969 61 14.0746V12.4563C61.0001 12.3337 60.9676 12.2134 60.9059 12.1072C60.8442 12.001 60.7554 11.9128 60.6484 11.8513L54.8389 8.51357C54.7313 8.45222 54.6094 8.41992 54.4852 8.41992C54.3611 8.41992 54.2391 8.45222 54.1315 8.51357L48.2917 11.854C48.1842 11.915 48.0949 12.0031 48.0329 12.1094C47.9709 12.2156 47.9384 12.3363 47.9387 12.459V19.1371C47.9389 19.2602 47.9718 19.3812 48.0343 19.4876C48.0968 19.5941 48.1865 19.6824 48.2945 19.7435L54.0998 23.0211C54.2052 23.0793 54.3239 23.1099 54.4446 23.1099C54.5652 23.1099 54.6839 23.0793 54.7893 23.0211L58.3001 21.0886C58.3546 21.0582 58.3999 21.014 58.4315 20.9604C58.4631 20.9069 58.4797 20.8461 58.4797 20.7841C58.4797 20.7221 58.4631 20.6613 58.4315 20.6077C58.3999 20.5542 58.3546 20.51 58.3001 20.4795L52.423 17.1391C52.3691 17.1085 52.3243 17.0643 52.2931 17.0111C52.2619 16.9579 52.2454 16.8975 52.2451 16.8359V14.7465C52.2452 14.6852 52.2615 14.6251 52.2925 14.5721C52.3235 14.5191 52.368 14.4752 52.4217 14.4447L54.2515 13.3999C54.3049 13.3691 54.3655 13.3528 54.4273 13.3528C54.4891 13.3528 54.5498 13.3691 54.6031 13.3999L56.4344 14.4447C56.488 14.4752 56.5325 14.5191 56.5635 14.5721C56.5945 14.6251 56.6108 14.6852 56.6109 14.7465V16.3853C56.6106 16.4467 56.6268 16.5072 56.6577 16.5604C56.6887 16.6137 56.7333 16.6579 56.7871 16.6885C56.8409 16.7192 56.9019 16.7352 56.9639 16.7349C57.026 16.7347 57.0869 16.7182 57.1404 16.6871L60.6484 14.6782Z" fill="#040127"/>
<path fill-rule="evenodd" clip-rule="evenodd" d="M54.4032 14.3655C54.4242 14.3535 54.448 14.3472 54.4722 14.3472C54.4964 14.3472 54.5201 14.3535 54.5411 14.3655L55.6663 15.006C55.6872 15.0179 55.7045 15.035 55.7166 15.0556C55.7287 15.0762 55.7351 15.0996 55.7353 15.1234V16.4044C55.7349 16.428 55.7283 16.4511 55.7162 16.4714C55.7042 16.4918 55.687 16.5087 55.6663 16.5205L54.5452 17.1624C54.5243 17.1743 54.5005 17.1806 54.4763 17.1806C54.4521 17.1806 54.4283 17.1743 54.4074 17.1624L53.2877 16.5205C53.2673 16.5085 53.2503 16.4915 53.2385 16.4712C53.2267 16.4509 53.2203 16.4279 53.2201 16.4044V15.1234C53.2201 15.0997 53.2263 15.0764 53.2382 15.0558C53.25 15.0352 53.2671 15.018 53.2877 15.006L54.4032 14.3655Z" fill="#040127"/>
<path fill-rule="evenodd" clip-rule="evenodd" d="M22.1251 8.58328C22.231 8.52156 22.3517 8.48901 22.4746 8.48901C22.5975 8.48901 22.7182 8.52156 22.8242 8.58328L28.6157 11.895C28.7222 11.9559 28.8107 12.0435 28.8721 12.149C28.9336 12.2545 28.966 12.3741 28.966 12.4959V19.1262C28.9657 19.2478 28.9333 19.3672 28.8718 19.4724C28.8103 19.5776 28.722 19.665 28.6157 19.7258L22.8242 23.0416C22.7175 23.102 22.5968 23.1337 22.4739 23.1337C22.3511 23.1337 22.2304 23.102 22.1237 23.0416L16.3321 19.7258C16.226 19.6649 16.1379 19.5775 16.0767 19.4722C16.0154 19.367 15.9832 19.2477 15.9833 19.1262V12.4959C15.983 12.3741 16.0152 12.2543 16.0767 12.1488C16.1382 12.0432 16.2268 11.9557 16.3335 11.895L22.1251 8.58328Z" fill="#040127"/>
<path opacity="0.66" d="M28.5908 11.8949L22.8214 8.58312C22.764 8.55053 22.7023 8.52616 22.638 8.51074L16.1156 19.5603C16.1711 19.6264 16.2378 19.6824 16.3128 19.7256L22.1167 23.0414C22.2005 23.0895 22.2934 23.1195 22.3897 23.1297C22.4859 23.1398 22.5832 23.1297 22.6752 23.1002L28.7673 12.0492C28.7193 11.9868 28.6593 11.9343 28.5908 11.8949Z" fill="#040127"/>
<path d="M22.8103 23.0415L28.5922 19.7257C28.6951 19.6634 28.7793 19.5749 28.8361 19.4695C28.8928 19.3641 28.92 19.2455 28.9149 19.1262V19.1002L22.66 8.51632C22.5697 8.49151 22.4753 8.48464 22.3823 8.49613C22.2893 8.50761 22.1995 8.53722 22.1181 8.58324L16.3817 11.8608L22.6214 23.118C22.6876 23.1011 22.7511 23.0754 22.8103 23.0415Z" fill="#040127"/>
</g>
<defs>
<clipPath id="clip0_102_456">
<rect width="61" height="37" fill="white"/>
</clipPath>
</defs>
</svg>
