<svg width="50" height="37" viewBox="0 0 50 37" fill="none" xmlns="http://www.w3.org/2000/svg">
<g clip-path="url(#clip0_102_454)">
<path d="M43.0308 21.266C41.4609 21.2672 39.9122 21.6232 38.5033 22.3068C38.0396 21.3921 37.5695 20.5883 37.491 19.99C37.3998 19.2916 37.292 18.8752 37.3998 18.0435C37.5075 17.2117 37.9986 16.0339 37.9912 15.9456C37.9839 15.8573 37.8817 15.4338 36.874 15.4266C35.8663 15.4194 35.0037 15.6176 34.9024 15.8771C34.7254 16.3572 34.5865 16.8501 34.487 17.3514C34.3109 18.2526 32.4743 21.4714 31.4319 23.1548C31.0915 22.4978 30.8012 21.9184 30.7409 21.4606C30.6497 20.7622 30.542 20.3459 30.6497 19.5142C30.7574 18.6824 31.2485 17.5046 31.2412 17.4163C31.2338 17.328 31.1316 16.9044 30.1239 16.8972C29.1162 16.89 28.2536 17.0883 28.1523 17.3478C28.0509 17.6073 27.9423 18.2246 27.736 18.8185C27.5297 19.4123 25.0889 24.7804 24.45 26.1718C24.1241 26.881 23.8412 27.4505 23.6403 27.8389C23.6403 27.8389 23.6285 27.865 23.6066 27.9083C23.4359 28.2399 23.3327 28.4229 23.3327 28.4229V28.4301C23.1967 28.6725 23.0516 28.8987 22.9795 28.8987C22.9293 28.8987 22.828 28.2516 23.0014 27.3667C23.3665 25.5049 24.2373 22.6006 24.2282 22.5005C24.2236 22.4492 24.3906 21.9436 23.6586 21.6787C22.9475 21.4219 22.6938 21.8499 22.629 21.8517C22.5642 21.8535 22.5194 22.0031 22.5194 22.0031C22.5194 22.0031 23.3117 18.7374 21.0078 18.7374C19.5675 18.7374 17.5712 20.2927 16.5881 21.703C15.9674 22.0374 14.6393 22.7529 13.2309 23.517L11.6143 24.3956C11.5787 24.356 11.5431 24.3172 11.5066 24.2785C8.71254 21.3363 3.54796 19.2546 3.76703 15.2986C3.84645 13.8568 4.35305 10.072 13.6909 5.47615C21.3401 1.71298 27.464 2.74839 28.5219 5.0436C30.0335 8.32196 25.2496 14.4155 17.3056 15.295C14.2787 15.6302 12.685 14.4723 12.2852 14.0406C11.8681 13.59 11.806 13.5657 11.6463 13.6513C11.3925 13.7901 11.555 14.192 11.6463 14.4299C11.8836 15.0391 12.8566 16.1195 14.5161 16.6575C15.9765 17.1306 19.5291 17.3902 23.8265 15.7492C28.6397 13.9108 32.3977 8.79866 31.2941 4.52454C30.1714 0.177428 22.8709 -1.25088 15.9592 1.17229C11.8516 2.61412 7.39538 4.87779 4.19513 7.83354C0.389706 11.348 -0.217301 14.4065 0.0328044 15.6843C0.920951 20.2252 7.2612 23.1827 9.79967 25.3743L9.45008 25.5644C8.19864 26.188 3.36084 28.6842 2.15231 31.3227C0.783119 34.3154 2.37046 36.4592 3.42291 36.7512C6.6834 37.6469 10.0288 36.0357 11.827 33.3881C13.6252 30.7406 13.4016 27.2946 12.58 25.7212C12.57 25.7014 12.5581 25.6825 12.5481 25.6636C12.8767 25.4707 13.2117 25.2761 13.5439 25.0832C14.192 24.7074 14.8273 24.3623 15.3796 24.0613C15.071 24.8958 14.8447 25.8969 14.7269 27.3433C14.5891 29.0419 15.2938 31.2371 16.2166 32.1013C16.6228 32.4816 17.112 32.4906 17.4215 32.4906C18.4949 32.4906 18.9851 31.6084 19.5209 30.5658C20.1827 29.2861 20.7696 27.7975 20.7696 27.7975C20.7696 27.7975 20.033 31.8202 22.0402 31.8202C22.7704 31.8202 23.5071 30.8839 23.8348 30.4063V30.4144L23.8914 30.3243C23.9671 30.2098 24.01 30.1368 24.01 30.1368C24.0104 30.1299 24.0104 30.123 24.01 30.1161C24.3039 29.6124 24.9566 28.4634 25.9342 26.5683C27.1975 24.1199 28.4097 21.0533 28.4097 21.0533C28.5279 21.7259 28.6889 22.3904 28.8916 23.043C29.1089 23.773 29.5707 24.575 29.934 25.3527C29.641 25.7537 29.4612 25.9835 29.4612 25.9835V25.9952C29.2275 26.3025 28.9646 26.6341 28.6899 26.9567C27.6931 28.1282 26.5047 29.4682 26.3458 29.8548C26.1633 30.3053 26.2025 30.6451 26.5649 30.9145C26.8296 31.111 27.3006 31.1416 27.7917 31.1092C28.4234 31.0752 29.0448 30.9357 29.6292 30.6964C30.1933 30.5001 30.7255 30.2238 31.2092 29.8764C32.1877 29.1663 32.7774 28.1507 32.7208 26.8053C32.6898 26.0637 32.4469 25.3292 32.1466 24.6353C32.2379 24.5092 32.3246 24.3821 32.4141 24.2533C33.429 22.7567 34.3438 21.1962 35.1525 19.5817C35.2707 20.2543 35.4317 20.9188 35.6344 21.5715C35.817 22.2023 36.1903 22.8835 36.5217 23.554C35.0712 24.7174 34.1721 26.0691 33.86 26.9558C33.2831 28.5959 33.7349 29.3384 34.5829 29.5078C34.9672 29.5844 35.5094 29.4105 35.9183 29.2375C36.5221 29.0391 37.0914 28.75 37.606 28.3805C38.5846 27.6704 39.5229 26.6764 39.4681 25.331C39.4274 24.7116 39.2846 24.1028 39.0455 23.5287C40.2751 23.0232 41.866 22.742 43.8934 22.9754C48.2419 23.4765 49.0963 26.1574 48.932 27.2793C48.7677 28.4012 47.8567 29.0176 47.5518 29.2041C47.247 29.3907 47.1538 29.4547 47.1794 29.5934C47.2168 29.7944 47.3574 29.7872 47.6175 29.7439C47.9754 29.6845 49.8995 28.8311 49.9835 26.7602C50.1022 24.1298 47.55 21.2425 43.0308 21.266ZM9.51215 32.4257C8.07176 33.9766 6.05905 34.5632 5.19647 34.0694C4.26451 33.5359 4.63327 31.2524 6.40135 29.6061C7.47845 28.6031 8.86589 27.6785 9.79237 27.1099L10.6851 26.58L10.7828 26.525L11.0064 26.3935C11.6472 28.731 11.0283 30.7938 9.51215 32.4257ZM20.0092 25.3833C19.5072 26.5908 18.4575 29.679 17.8186 29.5141C17.2709 29.3718 16.9359 27.0234 17.709 24.7128C18.0979 23.5495 18.9294 22.159 19.4178 21.6201C20.2037 20.7514 21.0699 20.4676 21.2799 20.8199C21.5446 21.2642 20.3205 24.6227 20.0056 25.3797L20.0092 25.3833ZM28.6808 29.4664C28.4681 29.5763 28.2728 29.6466 28.1824 29.5925C28.1158 29.5529 28.2737 29.4123 28.2737 29.4123C28.2737 29.4123 29.3581 28.2606 29.7852 27.7362C30.0335 27.4307 30.322 27.0693 30.636 26.6638C30.636 26.7044 30.636 26.7449 30.636 26.7846C30.6268 28.157 29.2768 29.0915 28.6753 29.4628L28.6808 29.4664ZM35.3597 27.9642C35.2008 27.8524 35.2273 27.492 35.7485 26.37C36.1106 25.6477 36.6156 25.0043 37.2336 24.4776C37.327 24.7455 37.3775 25.0262 37.3833 25.3094C37.3669 27.0423 36.1127 27.6911 35.3542 27.9606L35.3597 27.9642Z" fill="#040127"/>
</g>
<defs>
<clipPath id="clip0_102_454">
<rect width="50" height="37" fill="white"/>
</clipPath>
</defs>
</svg>
